<?xml version="1.0" standalone="no"?>
<!DOCTYPE svg PUBLIC "-//W3C//DTD SVG 20010904//EN"
 "http://www.w3.org/TR/2001/REC-SVG-20010904/DTD/svg10.dtd">
<svg version="1.0" xmlns="http://www.w3.org/2000/svg"
 width="300.000000pt" height="300.000000pt" viewBox="0 0 300.000000 300.000000"
 preserveAspectRatio="xMidYMid meet">

<g transform="translate(0.000000,300.000000) scale(0.100000,-0.100000)"
fill="#000000" stroke="none">
<path d="M1435 2380 c-62 -32 -91 -50 -80 -51 6 0 1 -4 -10 -9 -19 -9 -19 -9
2 -16 13 -3 20 -11 17 -16 -3 -5 -17 -2 -31 7 -14 9 -27 14 -30 12 -2 -3 5
-10 16 -17 20 -10 21 -19 21 -135 0 -69 2 -125 4 -125 2 0 12 -3 22 -7 12 -4
15 -3 10 5 -4 8 0 12 11 12 11 0 23 4 29 9 5 5 26 14 47 21 l37 12 -2 156 c-2
92 -7 157 -13 158 -5 2 -28 -5 -50 -16z"/>
<path d="M1137 1866 c-80 -50 -144 -92 -142 -94 4 -4 183 -88 480 -224 121
-55 224 -104 229 -109 9 -8 -20 -51 -48 -69 -11 -7 -16 -7 -11 -1 3 6 4 11 0
11 -7 0 -57 -31 -65 -40 -3 -4 -21 -11 -40 -16 l-35 -10 -3 -158 -3 -158 31 7
c41 9 81 30 73 38 -3 4 5 7 18 7 20 0 21 2 9 11 -12 9 -11 10 6 6 14 -3 28 5
43 23 12 15 35 33 51 40 17 7 30 17 30 22 0 6 -10 4 -22 -4 -13 -8 -32 -18
-42 -21 -15 -6 -17 -5 -7 7 9 11 9 15 -1 20 -7 3 -4 4 7 1 19 -5 20 -1 17 123
-4 118 -2 129 18 155 12 15 28 27 36 27 8 0 23 8 34 18 10 10 54 39 97 64 127
76 124 72 75 97 -24 12 -48 19 -55 15 -7 -4 -9 -4 -5 1 4 4 -34 26 -85 47 -50
22 -137 61 -192 88 -55 26 -122 58 -150 70 -27 13 -84 39 -127 59 l-76 37
-145 -90z m534 -520 c-11 -13 -51 -29 -51 -20 0 3 51 33 59 34 2 0 -2 -6 -8
-14z"/>
<path d="M1740 1415 c-10 -12 -10 -15 2 -15 8 0 15 7 15 15 0 8 -1 15 -2 15
-2 0 -8 -7 -15 -15z"/>
<path d="M939 868 c-14 -27 -4 -34 26 -18 30 16 32 26 5 33 -14 3 -24 -1 -31
-15z"/>
<path d="M1996 864 c-4 -9 -4 -19 -1 -23 8 -7 38 12 43 27 6 19 -35 14 -42 -4z"/>
<path d="M2213 808 c-39 -10 -83 -61 -83 -95 0 -48 29 -91 74 -108 39 -15 45
-15 84 0 23 10 42 21 42 25 0 16 -26 29 -40 20 -22 -14 -76 -12 -88 3 -39 46
-15 117 39 117 17 0 39 -4 49 -10 21 -11 50 14 34 29 -17 17 -79 28 -111 19z"/>
<path d="M422 794 c-17 -12 -22 -24 -20 -47 3 -28 9 -34 56 -53 64 -25 68 -29
52 -49 -16 -19 -37 -19 -74 0 -19 10 -33 12 -39 6 -19 -19 2 -39 50 -49 77
-17 136 22 118 77 -4 12 -26 28 -58 39 -37 14 -52 25 -52 38 0 20 19 23 68 11
21 -6 29 -3 34 9 3 9 0 20 -8 25 -23 14 -103 10 -127 -7z"/>
<path d="M670 790 c-13 -24 -80 -180 -80 -186 0 -2 11 -4 24 -4 16 0 27 7 31
20 5 17 15 20 60 20 45 0 55 -3 60 -20 4 -13 15 -20 32 -20 13 0 23 4 21 8
-83 203 -82 202 -110 202 -17 0 -31 -8 -38 -20z m64 -112 c-7 -11 -64 -10 -64
1 0 5 7 26 16 47 l17 39 18 -40 c10 -21 15 -43 13 -47z"/>
<path d="M842 730 c4 -71 8 -85 31 -107 20 -21 35 -26 73 -26 39 0 51 4 71 27
20 24 23 38 23 107 0 78 -1 80 -22 77 -21 -3 -23 -9 -26 -81 -3 -70 -5 -79
-26 -88 -52 -24 -81 23 -74 121 3 43 2 45 -26 48 l-29 4 5 -82z"/>
<path d="M1090 705 l0 -105 71 0 c67 0 73 2 105 34 24 24 34 43 34 65 0 76
-45 111 -144 111 l-66 0 0 -105z m143 47 c20 -18 23 -71 4 -96 -9 -12 -28 -19
-53 -20 l-39 -1 -3 59 c-2 32 -1 65 2 72 7 17 63 8 89 -14z"/>
<path d="M1340 705 l0 -105 85 0 c69 0 85 3 85 15 0 12 -13 15 -61 15 -60 0
-60 0 -57 28 3 25 7 27 56 30 36 2 52 7 52 17 0 10 -16 15 -52 17 -49 3 -53 5
-53 28 0 22 4 25 40 27 22 1 48 2 58 2 9 1 17 8 17 16 0 12 -16 15 -85 15
l-85 0 0 -105z"/>
<path d="M1720 705 l0 -105 25 0 c23 0 25 4 25 40 l0 40 50 0 c43 0 50 3 50
20 0 17 -7 20 -51 20 -49 0 -50 1 -47 28 3 24 7 27 43 29 22 1 46 2 53 2 6 1
12 8 12 16 0 12 -16 15 -80 15 l-80 0 0 -105z"/>
<path d="M1931 711 c-24 -55 -40 -104 -37 -110 9 -15 44 -1 49 20 8 28 102 28
117 -1 6 -12 21 -20 35 -20 l24 0 -43 103 c-39 95 -44 102 -72 105 -30 3 -32
0 -73 -97z m99 -23 c0 -13 -8 -18 -30 -18 -34 0 -36 7 -14 58 l16 37 14 -30
c7 -16 13 -38 14 -47z"/>
<path d="M2370 705 l0 -105 25 0 25 0 0 105 0 105 -25 0 -25 0 0 -105z"/>
<path d="M2470 706 l0 -104 65 -4 c78 -4 85 -2 85 23 0 16 -7 19 -50 19 l-50
0 0 85 c0 84 0 85 -25 85 l-25 0 0 -104z"/>
<path d="M1605 756 c-3 -9 -7 -22 -9 -30 -3 -8 -15 -16 -27 -18 -36 -5 -36
-28 0 -28 27 0 31 -4 31 -26 0 -31 23 -28 28 4 2 16 10 22 28 22 15 0 24 6 24
15 0 9 -9 15 -25 15 -20 0 -25 5 -25 24 0 29 -18 44 -25 22z"/>
</g>
</svg>
